<svg xmlns="http://www.w3.org/2000/svg" width="3460" height="3459"><path d="M0 0 C0.81833691 -0.00282738 1.63667381 -0.00565475 2.47980881 -0.00856781 C6.83012949 -0.02343126 11.18041825 -0.03273554 15.53076172 -0.03710938 C19.02826657 -0.04144433 22.5255178 -0.05515906 26.02294922 -0.078125 C45.11037566 -0.20073282 64.06939215 0.07449043 83.10546875 1.578125 C84.2778327 1.67064671 84.2778327 1.67064671 85.47388077 1.76503754 C161.52753201 7.91156968 236.41179769 25.85361703 305.2109375 59.203125 C307.05855933 60.08080163 308.90621471 60.95840764 310.75390625 61.8359375 C332.64668988 72.37288789 353.48306073 85.03897667 373.2109375 99.203125 C374.00967285 99.77272949 374.8084082 100.34233398 375.63134766 100.92919922 C386.27451554 108.54346477 396.42297167 116.52004243 406.2109375 125.203125 C407.62709301 126.43288055 409.04367619 127.66214402 410.4609375 128.890625 C411.71205625 129.99352386 412.96187518 131.09789772 414.2109375 132.203125 C414.93547119 132.84282227 415.66000488 133.48251953 416.40649414 134.14160156 C422.60268821 139.66080522 428.5452279 145.38542135 434.3984375 151.265625 C435.24857422 152.11189453 436.09871094 152.95816406 436.97460938 153.83007812 C441.92897897 158.79209926 446.66236669 163.86812928 451.2109375 169.203125 C452.0565625 170.16734375 452.9021875 171.1315625 453.7734375 172.125 C471.24796229 192.39992941 486.76743934 214.554045 499.90087891 237.87695312 C500.81877648 239.50679437 501.74352087 241.13278972 502.67333984 242.75585938 C538.0338806 304.67302434 555.82976744 375.4291477 561.2109375 446.203125 C561.30592529 447.38817627 561.40091309 448.57322754 561.4987793 449.79418945 C562.41297169 462.81797746 562.39704007 475.84870509 562.39624023 488.8996582 C562.39840826 492.83751549 562.41657127 496.77508329 562.43554688 500.71289062 C562.48917943 524.63730925 561.11158692 548.42358525 558.4609375 572.203125 C558.33638687 573.33536499 558.33638687 573.33536499 558.20932007 574.49047852 C549.90263951 649.29393265 530.37367187 722.15919875 509.2109375 794.203125 C508.89916565 795.26585632 508.5873938 796.32858765 508.26617432 797.42352295 C492.53721575 850.93566068 474.76622702 903.96958807 455.2109375 956.203125 C454.8557605 957.15221741 454.5005835 958.10130981 454.13464355 959.0791626 C421.4117168 1046.39209088 384.35997769 1131.99641517 337.7734375 1227.703125 C337.10027496 1229.08041779 337.10027496 1229.08041779 336.41351318 1230.48553467 C331.4329897 1240.66792297 326.4146071 1250.83103541 321.3515625 1260.97265625 C320.90804947 1261.86194824 320.46453644 1262.75124023 320.00758362 1263.66748047 C316.4164453 1270.84492123 312.70053573 1277.95257072 308.93359375 1285.0390625 C306.29844883 1290.01819785 303.71619571 1295.02399481 301.1340332 1300.03076172 C295.31679462 1311.3050677 289.38108336 1322.49995435 283.26953125 1333.6171875 C280.49535476 1338.66721785 277.77037062 1343.74267703 275.05078125 1348.82226562 C269.0057064 1360.10861965 262.82141417 1371.30267163 256.48828125 1382.4296875 C253.64130809 1387.43262922 250.83298221 1392.45631566 248.03198242 1397.48510742 C241.20612884 1409.7333592 234.21458483 1421.875352 227.11181641 1433.96484375 C225.06108465 1437.45840989 223.01641501 1440.95547748 220.97265625 1444.453125 C212.80662477 1458.42289945 204.59412637 1472.36218736 196.2109375 1486.203125 C195.66373047 1487.10691895 195.11652344 1488.01071289 194.55273438 1488.94189453 C182.77814283 1508.3726255 170.83947357 1527.69626959 158.67724609 1546.88671875 C157.23358333 1549.16735017 155.79381064 1551.45038473 154.35546875 1553.734375 C148.58851175 1562.88974918 142.78681539 1572.02262503 136.9609375 1581.140625 C135.98688965 1582.66743896 135.98688965 1582.66743896 134.99316406 1584.22509766 C130.8903259 1590.63773576 126.71006153 1596.99295349 122.47277832 1603.31741333 C119.83812552 1607.25467345 117.2131456 1611.19839534 114.5859375 1615.140625 C113.37242897 1616.96095959 112.15888677 1618.78127174 110.9453125 1620.6015625 C110.02395508 1621.98359863 110.02395508 1621.98359863 109.08398438 1623.39355469 C107.21484375 1626.19726562 105.34570312 1629.00097656 103.4765625 1631.8046875 C102.8709549 1632.71311401 102.26534729 1633.62154053 101.64138794 1634.55749512 C100.44619291 1636.35025735 99.25094225 1638.1429825 98.05563354 1639.93566895 C95.63752698 1643.56237732 93.21956389 1647.18917418 90.80517578 1650.81835938 C86.59985258 1657.13699698 82.36245652 1663.43244342 78.0859375 1669.703125 C77.44342041 1670.64526855 76.80090332 1671.58741211 76.13891602 1672.55810547 C70.14586147 1681.32796397 64.06301469 1690.03312656 57.95361328 1698.72216797 C55.58441648 1702.09507045 53.22296352 1705.47336335 50.86132812 1708.8515625 C40.29695745 1723.96012342 29.66511749 1739.01279585 18.84765625 1753.94140625 C17.22584686 1756.18252233 15.60828618 1758.42663815 13.9921875 1760.671875 C6.71930153 1770.77261457 -0.63415055 1780.81109931 -8.03173828 1790.82080078 C-9.7666604 1793.1727555 -11.49561394 1795.52897339 -13.22265625 1797.88671875 C-21.26622976 1808.85897213 -29.46208977 1819.70709729 -37.73046875 1830.51074219 C-40.52537716 1834.16613236 -43.31195359 1837.82783669 -46.09863281 1841.48950195 C-57.24144132 1856.12925568 -68.47445017 1870.69577553 -79.7890625 1885.203125 C-80.28051758 1885.83395996 -80.77197266 1886.46479492 -81.27832031 1887.11474609 C-87.08415866 1894.56224931 -92.98310976 1901.92632741 -98.95336914 1909.24267578 C-102.44469205 1913.52783378 -105.88736067 1917.8465595 -109.2890625 1922.203125 C-113.77006732 1927.94195573 -118.34512954 1933.59878575 -122.95092773 1939.23779297 C-126.47383609 1943.55929686 -129.93064925 1947.92564465 -133.3515625 1952.328125 C-137.58620511 1957.76813694 -142.00509911 1963.02172502 -146.51757812 1968.23266602 C-150.0285919 1972.29241874 -153.40643803 1976.43673304 -156.734375 1980.6484375 C-159.64105495 1984.26244642 -162.64914747 1987.78709493 -165.65478516 1991.31884766 C-168.55222254 1994.72800906 -171.40658297 1998.16673717 -174.2265625 2001.640625 C-178.64169074 2007.06312653 -183.18918727 2012.36439955 -187.75 2017.6640625 C-190.61503339 2020.99477751 -193.4556419 2024.34550879 -196.2890625 2027.703125 C-201.07970319 2033.37622945 -205.90443945 2039.01938158 -210.7421875 2044.65234375 C-212.798727 2047.04700799 -214.85043564 2049.44568669 -216.8984375 2051.84765625 C-222.1200782 2057.96704983 -227.38685077 2064.03046099 -232.7890625 2069.9921875 C-236.75889547 2074.38071379 -240.63880187 2078.84455211 -244.46875 2083.35546875 C-250.06481415 2089.93787622 -255.74877195 2096.4042383 -261.63720703 2102.72705078 C-264.80982953 2106.1341396 -267.90456047 2109.59219722 -270.94921875 2113.11328125 C-273.82891155 2116.38426989 -276.79260503 2119.57815591 -279.74462891 2122.78369141 C-282.27661074 2125.53803597 -284.77949051 2128.3106371 -287.2265625 2131.140625 C-291.77881196 2136.38820612 -296.53498269 2141.449651 -301.25585938 2146.54492188 C-303.60887672 2149.08977758 -305.94917385 2151.6462032 -308.2890625 2154.203125 C-318.38977595 2165.22997837 -328.55898157 2176.18942637 -338.80078125 2187.08544922 C-340.84133179 2189.25879591 -342.87795238 2191.43577459 -344.9140625 2193.61328125 C-351.58266096 2200.73500142 -358.27205118 2207.80486924 -365.26171875 2214.61328125 C-367.2369578 2216.63736702 -369.07499951 2218.67737377 -370.91188049 2220.82176208 C-374.87722525 2225.36730153 -379.08169773 2229.63643135 -383.35131836 2233.89477539 C-384.17829727 2234.72350662 -385.00527618 2235.55223785 -385.85731506 2236.40608215 C-388.57034903 2239.12348919 -391.28699127 2241.83725494 -394.00390625 2244.55078125 C-395.90302403 2246.45057338 -397.80199358 2248.35051276 -399.70082092 2250.25059509 C-403.67236912 2254.22395608 -407.64600602 2258.19521903 -411.62084961 2262.1652832 C-416.19826897 2266.73726167 -420.7720751 2271.31283109 -425.34402174 2275.89028174 C-429.28890162 2279.83971822 -433.23575015 2283.78717941 -437.18421274 2287.73303407 C-439.53395097 2290.08122349 -441.88283163 2292.43025788 -444.23032951 2294.78068733 C-446.85027088 2297.40318253 -449.47342123 2300.02242658 -452.09741211 2302.64086914 C-452.8618161 2303.40729736 -453.62622009 2304.17372559 -454.41378784 2304.96337891 C-458.50938028 2309.04303087 -462.69084752 2312.95606266 -467.08217716 2316.71654415 C-469.4359606 2318.76652917 -471.61233403 2320.96756603 -473.7890625 2323.203125 C-477.32319647 2326.77497076 -480.91902581 2330.17553392 -484.74609375 2333.4296875 C-486.2119574 2334.70215805 -487.6434114 2336.01468268 -489.05078125 2337.3515625 C-495.41799329 2343.35991395 -502.17655276 2347.9004021 -509.7890625 2352.203125 C-510.61019531 2352.67621094 -511.43132812 2353.14929687 -512.27734375 2353.63671875 C-535.39215276 2366.10706109 -562.86557831 2367.15961647 -587.7890625 2360.203125 C-614.53353781 2351.89575949 -635.50382637 2332.9784723 -648.5390625 2308.453125 C-660.20499466 2284.03857557 -661.86315781 2256.35268595 -653.4609375 2230.64453125 C-645.76505647 2209.12403186 -631.0655453 2192.64470978 -613.87890625 2178.07421875 C-610.56088439 2175.10350386 -607.45938428 2171.91655917 -604.35131836 2168.72827148 C-601.82305517 2166.15534388 -599.24753257 2163.72264867 -596.48852539 2161.39819336 C-589.83920135 2155.60171308 -583.70144088 2149.25907036 -577.47265625 2143.01953125 C-576.08852969 2141.6360796 -574.70425482 2140.25277632 -573.31983948 2138.86961365 C-570.42945408 2135.98069638 -567.5408691 2133.08999424 -564.65356445 2130.19799805 C-560.96982205 2126.50855892 -557.28160762 2122.82362824 -553.5920248 2119.14003086 C-550.73589957 2116.28753518 -547.88218012 2113.43264223 -545.02916145 2110.57703972 C-543.67085018 2109.21806579 -542.31180797 2107.85982201 -540.95199394 2106.50235176 C-531.77387538 2097.36406166 -531.77387538 2097.36406166 -523.10804749 2087.74449158 C-521.37860353 2085.72346242 -519.53046024 2083.84713238 -517.6328125 2081.984375 C-516.56353516 2080.92669922 -516.56353516 2080.92669922 -515.47265625 2079.84765625 C-514.01692708 2078.41796875 -512.56119792 2076.98828125 -511.10546875 2075.55859375 C-507.00980174 2071.50736436 -503.11837436 2067.36480804 -499.36132812 2062.99804688 C-497.27756679 2060.61919387 -495.05422506 2058.40867802 -492.7890625 2056.203125 C-489.16024728 2052.61822888 -485.7484339 2048.940189 -482.43359375 2045.06640625 C-480.27483476 2042.62049642 -477.95821912 2040.35967275 -475.63061523 2038.07592773 C-473.86069393 2036.27597197 -472.20706799 2034.42228862 -470.5625 2032.5078125 C-466.79222836 2028.17130228 -462.87063838 2023.99427032 -458.9140625 2019.828125 C-453.85321279 2014.47567037 -448.83419821 2009.09795227 -443.93359375 2003.59765625 C-441.36906818 2000.73416959 -438.76746048 1997.90622625 -436.1640625 1995.078125 C-432.58558916 1991.18656582 -429.06074325 1987.25631071 -425.59765625 1983.26171875 C-423.35895 1980.7135585 -421.07496038 1978.20901907 -418.7890625 1975.703125 C-415.33262479 1971.91303418 -411.92062396 1968.09256467 -408.55859375 1964.21875 C-406.53791294 1961.91704736 -404.47593632 1959.65548121 -402.4140625 1957.390625 C-399.32269449 1953.97083172 -396.36447218 1950.48353976 -393.4765625 1946.890625 C-389.58779861 1942.07887352 -385.46291536 1937.55876956 -381.23779297 1933.04638672 C-377.27202394 1928.78713814 -373.57843169 1924.35439366 -369.93359375 1919.81640625 C-367.79031294 1917.20464877 -365.5652592 1914.69947198 -363.2890625 1912.203125 C-360.26623829 1908.88323014 -357.36394089 1905.50548388 -354.5390625 1902.015625 C-350.91642936 1897.54097884 -347.19423924 1893.16924902 -343.4140625 1888.828125 C-335.23306009 1879.429258 -327.16953353 1869.94413431 -319.30078125 1860.28125 C-316.14296087 1856.41132393 -312.96612736 1852.55725543 -309.7890625 1848.703125 C-304.44205963 1842.21419572 -299.10901201 1835.71425865 -293.7890625 1829.203125 C-293.09941406 1828.36136719 -292.40976563 1827.51960938 -291.69921875 1826.65234375 C-289.39344453 1823.83788155 -287.09067731 1821.02098986 -284.7890625 1818.203125 C-284.29889648 1817.60338867 -283.80873047 1817.00365234 -283.30371094 1816.38574219 C-276.15517961 1807.63396662 -269.08705714 1798.82703632 -262.13183594 1789.92089844 C-259.85672317 1787.01040872 -257.5723788 1784.10718004 -255.2890625 1781.203125 C-254.37235272 1780.03649221 -253.45568602 1778.86982556 -252.5390625 1777.703125 C-247.0390625 1770.703125 -247.0390625 1770.703125 -245.66381836 1768.95288086 C-244.74787922 1767.78709577 -243.83202624 1766.62124299 -242.91625977 1765.45532227 C-240.61416647 1762.52460403 -238.31055172 1759.59510589 -236.00390625 1756.66796875 C-229.87643912 1748.88864667 -223.80811998 1741.06666211 -217.7890625 1733.203125 C-217.31275391 1732.58131348 -216.83644531 1731.95950195 -216.34570312 1731.31884766 C-213.09370664 1727.07295185 -209.8459121 1722.82386532 -206.60009766 1718.57324219 C-204.69998719 1716.08655138 -202.7972642 1713.60187209 -200.89453125 1711.1171875 C-192.65318786 1700.34297254 -184.52693502 1689.49327336 -176.51123047 1678.55029297 C-174.76615637 1676.17190589 -173.01498633 1673.79813366 -171.26171875 1671.42578125 C-163.90894415 1661.47564181 -156.62601232 1651.4780638 -149.39794922 1641.43701172 C-147.24025422 1638.44112261 -145.07846998 1635.44819775 -142.91625977 1632.45556641 C-141.8316848 1630.95424778 -140.7475374 1629.45262018 -139.66381836 1627.95068359 C-136.96284 1624.20787031 -134.2565586 1620.4691225 -131.5390625 1616.73828125 C-125.42154119 1608.32703405 -119.44069645 1599.8402159 -113.59375 1591.23852539 C-109.59348265 1585.35801189 -105.51197487 1579.54054867 -101.39637756 1573.74040222 C-97.8221211 1568.6913851 -94.30137266 1563.60832334 -90.8125 1558.5 C-89.97687027 1557.27739471 -89.97687027 1557.27739471 -89.12435913 1556.03009033 C-82.52148812 1546.35993917 -75.96177192 1536.66068393 -69.4140625 1526.953125 C-68.78042786 1526.01390198 -68.14679321 1525.07467896 -67.49395752 1524.10699463 C-58.6310578 1510.96416313 -49.82550617 1497.79209022 -41.24462891 1484.46289062 C-39.84140068 1482.28437997 -38.43177124 1480.11017691 -37.01953125 1477.9375 C-12.89582119 1440.80418638 10.54446251 1403.24378692 33.2109375 1365.203125 C33.860625 1364.11386719 34.5103125 1363.02460938 35.1796875 1361.90234375 C44.35148477 1346.5145042 53.39758431 1331.05857336 62.30908203 1315.51855469 C64.2511665 1312.13299536 66.19780791 1308.75008115 68.14453125 1305.3671875 C81.99674733 1281.26663046 95.36610515 1256.91207286 108.48974609 1232.40722656 C110.17550447 1229.26908572 111.87322629 1226.13771749 113.57421875 1223.0078125 C134.32530532 1184.71363569 154.11942802 1145.75280522 172.71679688 1106.36669922 C174.06244638 1103.51752826 175.41280823 1100.67062803 176.76390076 1097.82403564 C185.53934012 1079.31845434 193.98293743 1060.67841155 202.24041748 1041.93638611 C204.49055368 1036.8297226 206.75525108 1031.72973948 209.02734375 1026.6328125 C242.57258151 951.28772405 271.79742168 873.97811406 297.42700195 795.59735107 C298.22275197 793.1670423 299.02227144 790.7379967 299.82226562 788.30908203 C325.76169414 709.40689721 349.7809673 627.8675811 358.5234375 545.015625 C358.60493042 544.24582306 358.68642334 543.47602112 358.77038574 542.68289185 C367.1403078 462.37895585 357.84752776 375.43884115 306.2109375 310.203125 C304.33939777 308.06094479 302.44797879 305.94354917 300.52026367 303.85180664 C299.2109375 302.203125 299.2109375 302.203125 299.2109375 300.203125 C298.5509375 300.203125 297.8909375 300.203125 297.2109375 300.203125 C295.90625 298.875 295.90625 298.875 294.3359375 296.953125 C285.29847845 286.38768319 275.34951428 277.47522377 264.2109375 269.203125 C263.63585449 268.77257813 263.06077148 268.34203125 262.46826172 267.8984375 C200.11847204 221.43966111 119.68371208 204.25184447 43.2734375 201.640625 C42.12681641 201.59744141 40.98019531 201.55425781 39.79882812 201.50976562 C-22.61575407 199.30936345 -85.20490099 207.57447225 -145.7890625 222.203125 C-146.45343323 222.3621228 -147.11780396 222.52112061 -147.80230713 222.68493652 C-197.77607029 234.64612741 -246.34055351 251.9294187 -292.81787109 273.80566406 C-294.83673885 274.75521205 -296.85799371 275.69969781 -298.88134766 276.63964844 C-313.40243706 283.38745872 -327.4246169 290.72074164 -341.2734375 298.75585938 C-343.50541277 300.03993832 -345.7490788 301.29505115 -348.0078125 302.53125 C-372.57953563 315.98272094 -395.59502579 332.15918287 -417.7890625 349.203125 C-418.38912109 349.66283691 -418.98917969 350.12254883 -419.60742188 350.59619141 C-432.3247484 360.36994917 -444.44042212 370.78342272 -456.17919922 381.7109375 C-457.92787859 383.33179408 -459.68815559 384.93948627 -461.44921875 386.546875 C-469.10569314 393.5678395 -476.33210735 400.81550746 -483.27685547 408.53808594 C-484.8683389 410.29041352 -486.48300309 412.01852367 -488.10546875 413.7421875 C-493.84825455 419.84550694 -499.37093046 426.01284313 -504.61328125 432.55859375 C-506.9193795 435.36151748 -509.33057781 438.03315775 -511.7890625 440.703125 C-516.68412378 446.02943588 -521.2508527 451.57253195 -525.7890625 457.203125 C-527.2465702 458.97463795 -528.70491172 460.74546517 -530.1640625 462.515625 C-535.46968914 469.00233027 -540.63987432 475.59207521 -545.7890625 482.203125 C-546.59085938 483.23050781 -547.39265625 484.25789063 -548.21875 485.31640625 C-554.98760719 494.04934167 -561.54516829 502.93426869 -568.06591797 511.85351562 C-569.61174377 513.96134043 -571.16895374 516.06004245 -572.73046875 518.15625 C-589.1346049 540.34099634 -604.42912118 563.64740056 -618.7890625 587.203125 C-619.36382324 588.14591309 -619.93858398 589.08870117 -620.53076172 590.06005859 C-646.05322269 632.05375704 -669.67310012 675.34563755 -689.7890625 720.203125 C-690.34138952 721.42891058 -690.89379957 722.65465874 -691.44628906 723.88037109 C-725.45616215 799.48699665 -750.89067695 878.06982623 -770.25506592 958.61557007 C-777.52120614 988.82804864 -777.52120614 988.82804864 -781.4765625 996.828125 C-781.82195068 997.53630371 -782.16733887 998.24448242 -782.52319336 998.97412109 C-791.78351483 1017.44480951 -805.7832997 1032.14108108 -823.7890625 1042.203125 C-825.24699219 1043.04423828 -825.24699219 1043.04423828 -826.734375 1043.90234375 C-847.46891062 1055.11707214 -875.03019322 1058.30071686 -897.76953125 1052.1796875 C-898.76597656 1051.85742188 -899.76242187 1051.53515625 -900.7890625 1051.203125 C-901.96082031 1050.83960938 -903.13257813 1050.47609375 -904.33984375 1050.1015625 C-931.30352586 1041.12332249 -951.72966333 1021.99141255 -964.48828125 996.85546875 C-969.83079278 985.13424069 -972.79075031 973.0342046 -973.6640625 960.203125 C-973.71344971 959.55311523 -973.76283691 958.90310547 -973.8137207 958.23339844 C-974.5442976 942.20311481 -970.24861607 926.26876044 -966.5390625 910.828125 C-966.14823486 909.18438904 -966.14823486 909.18438904 -965.74951172 907.50744629 C-944.89452177 819.93854062 -916.76574676 733.6040069 -829.39306641 548.09912109 C-827.6830203 545.01166799 -825.99119532 541.91464802 -824.30078125 538.81640625 C-815.8448485 523.37837608 -806.90081758 508.31172997 -797.6875 493.31835938 C-796.03828728 490.61208953 -794.41836512 487.89291511 -792.8203125 485.15625 C-784.35440256 470.67584348 -774.98130151 456.81295148 -765.61994934 442.9026947 C-762.58902021 438.39881566 -759.58020802 433.88097249 -756.58642578 429.35229492 C-742.2278708 407.65673029 -726.69090107 386.78552224 -710.7890625 366.203125 C-710.20060547 365.4404834 -709.61214844 364.6778418 -709.00585938 363.89208984 C-702.05496023 354.89123301 -695.04141029 345.96352243 -687.7890625 337.203125 C-686.3302126 335.41187892 -684.87189226 333.62020144 -683.4140625 331.828125 C-678.75568788 326.13635012 -674.01652745 320.51605323 -669.24804688 314.91650391 C-668.26156206 313.75801153 -667.27590685 312.5988123 -666.29101562 311.43896484 C-660.31129864 304.39913715 -654.25889775 297.45267153 -648.015625 290.64453125 C-646.09773043 288.54157667 -644.21530205 286.41643344 -642.3515625 284.265625 C-638.13570514 279.42519618 -633.79963793 274.69656323 -629.43896484 269.98681641 C-628.29140319 268.74620003 -627.14605629 267.50353284 -626.00244141 266.25927734 C-616.66613222 256.11364367 -606.99662419 246.46956568 -596.86181641 237.12304688 C-594.81847106 235.23036516 -592.79159662 233.32162971 -590.76953125 231.40625 C-584.54902317 225.52344002 -578.28500528 219.81886672 -571.58984375 214.47265625 C-568.91317622 212.30369692 -566.30442882 210.07519849 -563.70288086 207.81762695 C-557.21066507 202.18489654 -550.57204041 196.80330398 -543.69873047 191.64013672 C-541.5370489 190.01348654 -539.38396217 188.37575476 -537.23046875 186.73828125 C-504.70323473 162.08236043 -470.43186274 140.07834074 -434.7890625 120.203125 C-433.45198242 119.45627441 -433.45198242 119.45627441 -432.08789062 118.69433594 C-370.80376792 84.61618822 -305.90779192 58.336068 -238.7890625 38.203125 C-237.69292633 37.87374939 -237.69292633 37.87374939 -236.574646 37.53771973 C-160.66484289 14.80767775 -79.39898901 0.19109079 0 0 Z " fill="#22BECE" transform="translate(2461.7890625,883.796875)"></path><path d="M0 0 C0.74507812 0.60199219 1.49015625 1.20398437 2.2578125 1.82421875 C20.53574792 17.01337414 31.84750179 40.70814779 35 64 C37.06618936 91.37302246 31.22728924 119.24753223 13.03515625 140.5859375 C-1.85200813 157.31542091 -20.06800532 169.52388088 -42 175 C-43.33998047 175.33837891 -43.33998047 175.33837891 -44.70703125 175.68359375 C-62.39563444 179.35290342 -81.6845656 176.78680687 -99.50506592 175.40444946 C-105.76741692 174.92101231 -112.0320125 174.46908467 -118.296875 174.01953125 C-119.54926971 173.92961411 -120.80166443 173.83969696 -122.0920105 173.74705505 C-133.51300437 172.94000779 -144.93698516 172.3175896 -156.375 171.8125 C-157.58086761 171.75778534 -157.58086761 171.75778534 -158.81109619 171.70196533 C-164.87285587 171.43042633 -170.9357848 171.20874185 -177 171 C-178.18906952 170.95763214 -179.37813904 170.91526428 -180.60324097 170.87161255 C-205.67353352 169.99720562 -230.72831123 169.79887469 -255.8125 169.8125 C-257.28357019 169.81267939 -257.28357019 169.81267939 -258.78435898 169.8128624 C-291.22938142 169.81785086 -323.59699631 170.19763743 -356 172 C-357.46179688 172.0799118 -357.46179688 172.0799118 -358.953125 172.16143799 C-444.47286727 176.87086879 -532.08070791 186.44985512 -634 225 C-635.08474609 225.50611816 -635.08474609 225.50611816 -636.19140625 226.02246094 C-650.06851676 232.57128151 -663.33101891 239.96065248 -675 250 C-676.15242188 250.91845703 -676.15242188 250.91845703 -677.328125 251.85546875 C-686.44667306 259.37672013 -693.46572852 269.08683322 -695 281 C-699.85164657 350.30923669 -638.3724921 420.07171813 -596.45019531 469.29541016 C-594.98196961 471.02119329 -593.51826467 472.75074272 -592.0546875 474.48046875 C-586.55809804 480.956408 -580.95141254 487.3003901 -575.15966797 493.51416016 C-572.44776533 496.42394623 -569.7836796 499.36157725 -567.1875 502.375 C-564.53714215 505.44248439 -561.7319387 508.29212262 -558.83837986 511.1291666 C-557.07889473 512.91971251 -555.44512926 514.76611477 -553.81639099 516.67552185 C-549.87487181 521.20565674 -545.68803042 525.45258964 -541.43774414 529.69165039 C-540.61076523 530.52038162 -539.78378632 531.34911285 -538.93174744 532.20295715 C-536.21871347 534.92036419 -533.50207123 537.63412994 -530.78515625 540.34765625 C-528.88603847 542.24744838 -526.98706892 544.14738776 -525.08824158 546.04747009 C-521.11669338 550.02083108 -517.14305648 553.99209403 -513.16821289 557.9621582 C-508.59079353 562.53413667 -504.0169874 567.10970609 -499.44504076 571.68715674 C-495.50016088 575.63659322 -491.55331235 579.58405441 -487.60484976 583.52990907 C-485.25511153 585.87809849 -482.90623087 588.22713288 -480.55873299 590.57756233 C-477.93879162 593.20005753 -475.31564127 595.81930158 -472.69165039 598.43774414 C-471.5450444 599.58738647 -471.5450444 599.58738647 -470.37527466 600.76025391 C-466.30787358 604.81182423 -462.15853345 608.69923364 -457.79233456 612.42796993 C-454.70946555 615.13190864 -451.86712142 618.07121133 -449 621 C-444.75042689 625.29917683 -440.47208324 629.45540076 -435.85546875 633.36328125 C-432.91245346 635.95933052 -430.20026379 638.77818963 -427.46875 641.59375 C-425.43745806 643.57361683 -423.37511246 645.43933162 -421.234375 647.296875 C-416.96366849 651.00292571 -412.8507745 654.85784393 -408.75 658.75 C-398.63015575 668.3135784 -388.36457555 677.70187595 -378 687 C-376.33307353 688.49971128 -374.66640851 689.99971321 -373 691.5 C-372.17371094 692.2425 -371.34742188 692.985 -370.49609375 693.75 C-368.83777017 695.24482689 -367.18407559 696.7448058 -365.53515625 698.25 C-361.34356268 702.0641515 -357.10394348 705.76014329 -352.6875 709.3125 C-347.8749471 713.20191158 -343.3540148 717.3274325 -338.84106445 721.5534668 C-334.60505142 725.49790439 -330.19365192 729.16480701 -325.6796875 732.7890625 C-322.86746685 735.1093495 -320.18202737 737.53071134 -317.5 740 C-313.13230508 744.01605847 -308.63150764 747.79385454 -304.015625 751.51953125 C-300.45329019 754.44969007 -296.97545747 757.46780951 -293.5 760.5 C-288.39706001 764.94581071 -283.24708686 769.3126385 -277.98828125 773.57421875 C-274.24587483 776.61217219 -270.53009996 779.68178248 -266.8125 782.75 C-259.89186872 788.45512487 -252.94426063 794.12592576 -245.9765625 799.7734375 C-243.27885541 801.96008415 -240.58666031 804.15326734 -237.8984375 806.3515625 C-230.74353367 812.19704988 -223.53641676 817.95005648 -216.19140625 823.5546875 C-212.87368681 826.08858935 -209.59121787 828.66593365 -206.3125 831.25 C-193.30059955 841.49220357 -180.23369855 851.64690727 -166.95458984 861.54101562 C-165.00414509 862.99690593 -163.05799133 864.45833533 -161.11328125 865.921875 C-146.34497636 877.03496913 -131.46240376 887.98888215 -116.4609375 898.78515625 C-113.4805697 900.93010804 -110.50706358 903.08406408 -107.5390625 905.24609375 C-99.13227709 911.36212192 -90.64966244 917.34120345 -82.05078125 923.18432617 C-76.02613321 927.28160792 -70.06041579 931.45554538 -64.13256836 935.69165039 C-58.17775125 939.92921486 -52.08932893 943.95913071 -46 948 C-44.09321155 949.27393402 -42.18695121 950.54865889 -40.28125 951.82421875 C-13.50884923 969.72290476 13.54504145 987.16506222 41 1004 C42.59739014 1004.98057373 42.59739014 1004.98057373 44.22705078 1005.98095703 C76.58827087 1025.81944863 109.55010275 1044.60593293 143.07324219 1062.4140625 C145.08503654 1063.50420398 147.07991877 1064.62595994 149.05957031 1065.7734375 C150.03249023 1066.33289062 151.00541016 1066.89234375 152.0078125 1067.46875 C153.30549561 1068.23348633 153.30549561 1068.23348633 154.62939453 1069.01367188 C156.89485251 1070.16003305 156.89485251 1070.16003305 159.08862305 1069.87255859 C161.46433036 1068.78802954 162.79591416 1067.48339946 164.57421875 1065.5703125 C165.56832764 1064.50973633 165.56832764 1064.50973633 166.58251953 1063.42773438 C167.27716309 1062.66783203 167.97180664 1061.90792969 168.6875 1061.125 C169.76813721 1059.95807617 169.76813721 1059.95807617 170.87060547 1058.76757812 C175.30793311 1053.94287269 179.60749836 1049.04197551 183.68359375 1043.90625 C185.48220281 1041.64964774 187.30535844 1039.42853565 189.16015625 1037.21875 C195.43520115 1029.72385192 201.42134647 1022.12755489 207.125 1014.1875 C223.40536761 991.70152988 246.03155773 976.17938823 273.67578125 971.3359375 C301.17688127 967.36098859 327.40140271 973.39377958 350.2578125 989.26171875 C352.95911552 991.40506032 355.48785469 993.63866278 358 996 C358.90878906 996.81855469 359.81757812 997.63710937 360.75390625 998.48046875 C378.91243064 1015.57827266 390.30320899 1040.21502009 391.203125 1065.2421875 C391.69520807 1094.12870942 382.3810276 1117.14538088 364.6796875 1139.84375 C362.94175176 1142.07477448 361.21987502 1144.31753039 359.5 1146.5625 C352.99202548 1155.02948031 346.3312147 1163.32519427 339.36181641 1171.41601562 C336.89402283 1174.2864073 334.44760847 1177.17489944 332 1180.0625 C331.31417847 1180.86747925 331.31417847 1180.86747925 330.61450195 1181.6887207 C328.76390675 1183.86897378 326.97146669 1186.04009195 325.3125 1188.37109375 C324.6628125 1189.17740234 324.6628125 1189.17740234 324 1190 C323.34 1190 322.68 1190 322 1190 C321.75378906 1190.57492187 321.50757813 1191.14984375 321.25390625 1191.7421875 C319.80206947 1194.35639827 318.09712451 1196.06336208 315.9375 1198.125 C313.08428067 1200.77905 313.08428067 1200.77905 311 1204 C310.34 1204 309.68 1204 309 1204 C309 1204.66 309 1205.32 309 1206 C308.34 1206 307.68 1206 307 1206 C307 1206.66 307 1207.32 307 1208 C306.34 1208 305.68 1208 305 1208 C305 1208.66 305 1209.32 305 1210 C304.34 1210 303.68 1210 303 1210 C302.7525 1210.61875 302.505 1211.2375 302.25 1211.875 C300.79371361 1214.35068687 299.62187494 1214.95125002 297 1216 C297 1216.66 297 1217.32 297 1218 C296.34 1218 295.68 1218 295 1218 C295 1218.66 295 1219.32 295 1220 C294.34 1220 293.68 1220 293 1220 C293 1220.66 293 1221.32 293 1222 C291.70703125 1223.3046875 291.70703125 1223.3046875 289.8125 1224.875 C286.57980877 1227.61650493 283.44096624 1230.42740805 280.34716797 1233.32275391 C259.53937801 1252.78376135 236.50178718 1269.04875614 211.29443359 1282.25976562 C208.9338029 1283.50673284 206.58408984 1284.76641039 204.24072266 1286.04492188 C200.92063366 1287.85552164 197.58364094 1289.63105902 194.23440552 1291.38711548 C192.92342615 1292.08104241 191.61810957 1292.78578724 190.31906128 1293.50180054 C178.72814882 1299.86885597 178.72814882 1299.86885597 173.10546875 1298.3125 C171.38585486 1297.58221694 169.68567798 1296.80552778 168 1296 C166.1829533 1295.28167078 164.36563455 1294.5639755 162.54450989 1293.85604858 C159.02992305 1292.47487481 155.54833035 1291.01437714 152.0625 1289.5625 C151.31435028 1289.25220856 150.56620056 1288.94191711 149.79537964 1288.6222229 C105.70739229 1270.32817811 62.40365713 1249.62620934 20.99609375 1225.83984375 C16.57174178 1223.30455982 12.08907059 1220.90902632 7.5625 1218.5625 C-2.55847986 1213.29362245 -12.35318198 1207.45779341 -22.17919922 1201.66308594 C-24.71213839 1200.16971727 -27.24779458 1198.68115006 -29.78515625 1197.1953125 C-33.86244727 1194.80643522 -37.9336522 1192.40745552 -42 1190 C-42.8677002 1189.48638916 -42.8677002 1189.48638916 -43.75292969 1188.96240234 C-64.41130867 1176.70793225 -84.80299037 1163.99899763 -105 1151 C-105.87893921 1150.43539062 -105.87893921 1150.43539062 -106.77563477 1149.859375 C-117.98427208 1142.65534665 -129.10091165 1135.3182426 -140.18310547 1127.92138672 C-142.86441438 1126.13206412 -145.54735726 1124.3452119 -148.23046875 1122.55859375 C-159.17036199 1115.26672844 -170.05312356 1107.89605002 -180.88856506 1100.4499054 C-183.72839516 1098.4998169 -186.57196436 1096.55521619 -189.41583252 1094.61102295 C-198.80498961 1088.18288724 -208.05894277 1081.57619127 -217.27734375 1074.90625 C-218.01887695 1074.3697583 -218.76041016 1073.8332666 -219.52441406 1073.28051758 C-221.05391465 1072.17386548 -222.58321048 1071.06693034 -224.11230469 1069.9597168 C-229.25385975 1066.24292345 -234.43025635 1062.57944102 -239.625 1058.9375 C-247.27225422 1053.56760517 -254.7575115 1047.99979743 -262.20556641 1042.35791016 C-264.79727529 1040.39667413 -267.39862951 1038.4483949 -270 1036.5 C-270.95648437 1035.78199219 -271.91296875 1035.06398438 -272.8984375 1034.32421875 C-275.15125808 1032.63602197 -277.40647381 1030.95132376 -279.6640625 1029.26953125 C-287.57885602 1023.36534661 -295.4175928 1017.37369884 -303.19970703 1011.2956543 C-308.44060202 1007.20427659 -313.71105695 1003.15402698 -319 999.125 C-324.21255155 995.1508122 -329.38511196 991.13883387 -334.484375 987.01953125 C-337.61442604 984.50674183 -340.7763152 982.03591866 -343.9375 979.5625 C-349.01447451 975.58348828 -354.03810907 971.54767097 -359.01953125 967.44921875 C-362.69033267 964.43271483 -366.37518992 961.43378688 -370.0625 958.4375 C-370.75786865 957.87232666 -371.4532373 957.30715332 -372.16967773 956.72485352 C-375.74604749 953.82088372 -379.33169757 950.92991286 -382.9375 948.0625 C-394.80396983 938.5932968 -406.438839 928.83813794 -418 919 C-420.20708131 917.1235208 -422.41540326 915.24851658 -424.625 913.375 C-425.16455322 912.91730225 -425.70410645 912.45960449 -426.26000977 911.98803711 C-429.7028844 909.07523683 -433.1831938 906.2139316 -436.6875 903.375 C-441.08514096 899.79833687 -445.29268157 896.05675177 -449.48046875 892.23828125 C-452.03204917 889.97152842 -454.65171532 887.82459913 -457.3125 885.6875 C-462.12825904 881.79549728 -466.65249962 877.6674213 -471.16772461 873.43774414 C-474.47142754 870.36050275 -477.84393113 867.44356833 -481.375 864.625 C-487.3960609 859.79404631 -492.95342862 854.50983644 -498.56640625 849.21875 C-501.62038568 846.34287149 -504.74283387 843.56486475 -507.921875 840.828125 C-511.3666862 837.79772718 -514.71528301 834.66305985 -518.08032227 831.54467773 C-522.18152679 827.74695878 -526.32302442 823.99741681 -530.484375 820.265625 C-535.35508464 815.87896104 -540.17604369 811.43791917 -545 807 C-545.76352783 806.29834717 -545.76352783 806.29834717 -546.54248047 805.58251953 C-555.04132248 797.77023591 -563.47541614 789.89027356 -571.88671875 781.98388672 C-574.04661985 779.95623465 -576.21049491 777.93289203 -578.375 775.91015625 C-585.78026243 768.97941058 -593.10362482 762.00238113 -600.19140625 754.74609375 C-602.28506186 752.69902852 -604.37755302 750.79605285 -606.59788513 748.89793396 C-611.34663479 744.75677053 -615.79406067 740.34630819 -620.24243164 735.88696289 C-621.1296843 735.00146255 -622.01693695 734.11596222 -622.93107605 733.20362854 C-625.34196883 730.79635897 -627.75062043 728.38689168 -630.15810704 725.97621846 C-632.69174273 723.44003066 -635.22784059 720.90630674 -637.76353455 718.37217712 C-642.01936643 714.11815866 -646.27309912 709.8620497 -650.52563477 705.60473633 C-655.42480236 700.70012771 -660.32756169 695.79913163 -665.23220164 690.89999586 C-669.46188959 686.67486266 -673.68960476 682.44776289 -677.91571134 678.21904749 C-680.43157391 675.70163511 -682.94808521 673.18488123 -685.4663868 670.66990852 C-688.27612747 667.86362347 -691.08172635 665.05321947 -693.88696289 662.24243164 C-694.70949554 661.42192322 -695.5320282 660.60141479 -696.37948608 659.75604248 C-700.59314298 655.52699795 -704.65215896 651.2251734 -708.53278255 646.68752193 C-710.57479656 644.33889703 -712.77102128 642.17032138 -715 640 C-718.48433405 636.55223317 -721.78212816 633.04086066 -724.96484375 629.31640625 C-727.14820175 626.8313174 -729.39930807 624.42116343 -731.66357422 622.01000977 C-736.94699006 616.38366179 -741.99651532 610.67254119 -746.82421875 604.64453125 C-749.130317 601.84160752 -751.54151531 599.16996725 -754 596.5 C-758.89330483 591.17006181 -763.47388947 585.64284695 -768 580 C-768.90061312 578.89157874 -769.80167508 577.78352207 -770.703125 576.67578125 C-778.43230432 567.14032633 -785.81833989 557.36271459 -793.1328125 547.50683594 C-794.90027095 545.13389356 -796.68221354 542.77265773 -798.46875 540.4140625 C-857.98282973 461.40884443 -908.61876951 358.93775863 -895.875 257.25 C-888.27939882 203.35628824 -863.70918225 154.07710905 -826 115 C-825.43345703 114.41154297 -824.86691406 113.82308594 -824.28320312 113.21679688 C-816.90945316 105.59861321 -809.37110296 98.52899395 -801 92 C-799.99195313 91.175 -798.98390625 90.35 -797.9453125 89.5 C-732.48215284 36.19891184 -647.45366889 10.55100112 -566 -6 C-565.21405457 -6.16006531 -564.42810913 -6.32013062 -563.61834717 -6.48504639 C-488.32532361 -21.74834727 -411.15120318 -28.18055943 -334.46960449 -30.91143799 C-332.10493216 -30.99623705 -329.74045708 -31.08532545 -327.37597656 -31.17529297 C-244.4406748 -34.26366833 -160.90148049 -31.89177904 0 0 Z " fill="#F0582A" transform="translate(1376,1886)"></path><path d="M0 0 C1.04806824 0.00323273 1.04806824 0.00323273 2.11730957 0.00653076 C44.66207158 0.21630799 81.7065839 17.19315697 112.3125 46.3125 C113.00859375 46.94414063 113.7046875 47.57578125 114.421875 48.2265625 C142.61266938 74.66999359 156.94972888 115.64700952 158.4375 153.4921875 C159.20378838 194.96754605 144.01847239 236.17122899 115.3125 266.3125 C114.6525 266.3125 113.9925 266.3125 113.3125 266.3125 C112.6525 267.6325 111.9925 268.9525 111.3125 270.3125 C110.6525 270.3125 109.9925 270.3125 109.3125 270.3125 C109.3125 270.9725 109.3125 271.6325 109.3125 272.3125 C108.6525 272.3125 107.9925 272.3125 107.3125 272.3125 C107.3125 272.9725 107.3125 273.6325 107.3125 274.3125 C105.33075881 276.07133348 103.34705986 277.70031428 101.25 279.3125 C100.30096802 280.04509033 100.30096802 280.04509033 99.33276367 280.79248047 C65.32476794 306.75003137 24.14214365 319.7506768 -18.75854492 314.49267578 C-51.65675548 309.86967447 -81.30605124 296.82336486 -105.7265625 274.0625 C-107.57375493 272.26025592 -107.57375493 272.26025592 -109.6875 271.3125 C-109.6875 270.6525 -109.6875 269.9925 -109.6875 269.3125 C-110.28304687 269.05082031 -110.87859375 268.78914063 -111.4921875 268.51953125 C-115.43234416 266.35314618 -117.87890331 262.75892685 -120.6875 259.3125 C-121.46609375 258.37019531 -122.2446875 257.42789062 -123.046875 256.45703125 C-129.65082828 248.28891557 -134.86886155 239.63013982 -139.6875 230.3125 C-140.04086426 229.63703125 -140.39422852 228.9615625 -140.75830078 228.265625 C-159.88946412 191.25693246 -162.17898905 148.38840126 -149.91748047 108.828125 C-142.05504738 84.60932435 -128.75838133 63.23545336 -110.6875 45.3125 C-110.20313477 44.83087402 -109.71876953 44.34924805 -109.21972656 43.85302734 C-80.10158422 15.26978741 -40.67078878 -0.22736734 0 0 Z " fill="#77A33A" transform="translate(473.6875,1581.6875)"></path><path d="M0 0 C2.65067127 2.30150353 5.25545866 4.639391 7.83203125 7.0234375 C10.09093245 9.13553034 10.09093245 9.13553034 13.0625 11.375 C17.61834708 15.4461825 21.24053251 20.19935329 25 25 C25.74636719 25.93070313 26.49273438 26.86140625 27.26171875 27.8203125 C48.54410955 55.08257227 59.4969129 88.72891383 59.3125 123.1875 C59.31034485 123.91432983 59.3081897 124.64115967 59.30596924 125.39001465 C59.2530712 136.52306505 58.68802885 147.1655216 56 158 C55.82259277 158.78068848 55.64518555 159.56137695 55.46240234 160.36572266 C48.83931634 189.0994673 33.88195192 213.5933366 14 235 C13.48953125 235.5571167 12.9790625 236.1142334 12.453125 236.68823242 C11 238 11 238 9 238 C9 238.66 9 239.32 9 240 C-20.77714238 269.25243502 -62.71705795 281.49562987 -103.40281677 281.23348999 C-113.19400793 281.12412428 -122.4749246 280.24406386 -132 278 C-132.82725586 277.80664062 -133.65451172 277.61328125 -134.50683594 277.4140625 C-174.88829428 267.62461805 -210.79950955 242.47300065 -232.5625 206.875 C-244.17776751 187.18511188 -251.5665558 166.59923718 -255 144 C-255.13148438 143.17242188 -255.26296875 142.34484375 -255.3984375 141.4921875 C-260.69559213 100.40344756 -247.25518143 58.63975042 -222.56445312 25.99414062 C-218.38539436 20.66727546 -213.7964065 15.77112899 -209 11 C-208.2894043 10.28553711 -208.2894043 10.28553711 -207.56445312 9.55664062 C-152.61912181 -45.08720739 -59.7168455 -48.71637396 0 0 Z " fill="#EC217B" transform="translate(2680,500)"></path></svg>